name C:\Users\u0150099\Documents\master_thesis\3dpredictsim\Results\debug\Fal_s1_mtjc2_sc_cspx10_oy2_ATx70_Fpsl10_MTc4_MTPm_k1_d01_tau_MTJm_nl_MG_exp5_table_d01_PF_Natali2010_ls146_FDB2_lTs125_Fpsl10_ig21_wAk5e+04_wa2e+03_wpMnD1e+03_pelvis_bounds2.mot
datacolumns 130
datarows 4
range 1.05665080 1.08835032
endheader
time	pelvis_tilt	pelvis_list	pelvis_rotation	pelvis_tx	pelvis_ty	pelvis_tz	hip_flexion_l	hip_adduction_l	hip_rotation_l	hip_flexion_r	hip_adduction_r	hip_rotation_r	knee_angle_l	knee_angle_r	ankle_angle_l	ankle_angle_r	subtalar_angle_l	subtalar_angle_r	mtj_angle_l	mtj_angle_r	mtp_angle_l	mtp_angle_r	lumbar_extension	lumbar_bending	lumbar_rotation	arm_flex_l	arm_add_l	arm_rot_l	arm_flex_r	arm_add_r	arm_rot_r	elbow_flex_l	elbow_flex_r	pro_sup_l	pro_sup_r	glut_med1_l/activation	glut_med2_l/activation	glut_med3_l/activation	glut_min1_l/activation	glut_min2_l/activation	glut_min3_l/activation	semimem_l/activation	semiten_l/activation	bifemlh_l/activation	bifemsh_l/activation	sar_l/activation	add_long_l/activation	add_brev_l/activation	add_mag1_l/activation	add_mag2_l/activation	add_mag3_l/activation	tfl_l/activation	pect_l/activation	grac_l/activation	glut_max1_l/activation	glut_max2_l/activation	glut_max3_l/activation	iliacus_l/activation	psoas_l/activation	quad_fem_l/activation	gem_l/activation	peri_l/activation	rect_fem_l/activation	vas_med_l/activation	vas_int_l/activation	vas_lat_l/activation	med_gas_l/activation	lat_gas_l/activation	soleus_l/activation	tib_post_l/activation	flex_dig_l/activation	flex_hal_l/activation	tib_ant_l/activation	per_brev_l/activation	per_long_l/activation	per_tert_l/activation	ext_dig_l/activation	ext_hal_l/activation	FDB_l/activation	ercspn_l/activation	intobl_l/activation	extobl_l/activation	glut_med1_r/activation	glut_med2_r/activation	glut_med3_r/activation	glut_min1_r/activation	glut_min2_r/activation	glut_min3_r/activation	semimem_r/activation	semiten_r/activation	bifemlh_r/activation	bifemsh_r/activation	sar_r/activation	add_long_r/activation	add_brev_r/activation	add_mag1_r/activation	add_mag2_r/activation	add_mag3_r/activation	tfl_r/activation	pect_r/activation	grac_r/activation	glut_max1_r/activation	glut_max2_r/activation	glut_max3_r/activation	iliacus_r/activation	psoas_r/activation	quad_fem_r/activation	gem_r/activation	peri_r/activation	rect_fem_r/activation	vas_med_r/activation	vas_int_r/activation	vas_lat_r/activation	med_gas_r/activation	lat_gas_r/activation	soleus_r/activation	tib_post_r/activation	flex_dig_r/activation	flex_hal_r/activation	tib_ant_r/activation	per_brev_r/activation	per_long_r/activation	per_tert_r/activation	ext_dig_r/activation	ext_hal_r/activation	FDB_r/activation	ercspn_r/activation	intobl_r/activation	extobl_r/activation	
          1.05665080	        -11.42790735	         -2.24999179	          3.61913471	          1.40534556	          0.90172912	         -0.00296856	         -5.55393164	          0.71846451	         11.74177407	         36.85842782	          2.84863736	         -1.37558795	        -14.84794415	        -10.92668655	          6.87671180	         10.32414875	         10.12957382	          3.59873997	         -1.04801944	          0.01728204	         15.20323222	          0.74524814	          5.19114717	          1.04569872	         -1.83652574	          0.06601311	        -13.93009912	         19.36935622	         -2.31424552	        -13.45577812	         12.39900745	         53.20860017	         16.86551944	         86.51662706	         86.51662706	          0.19292994	          0.08134147	          0.05000016	          0.28884210	          0.15928695	          0.09566537	          0.05000014	          0.05000004	          0.05000003	          0.05000015	          0.09566664	          0.05000001	          0.05000001	          0.05000005	          0.05000014	          0.05000011	          0.63160416	          0.05000008	          0.05000008	          0.05000117	          0.05000020	          0.05000005	          0.21154278	          0.76112728	          0.05000002	          0.05000018	          0.05000003	          0.33041246	          0.12145234	          0.13066185	          0.10784101	          0.38747670	          0.47067474	          0.28377502	          0.45875122	          0.40846535	          0.49463472	          0.05000000	          0.05716935	          0.13578356	          0.05000001	          0.05000000	          0.08134148	          0.74634826	          0.05000000	          0.05000000	          0.05000000	          0.05000001	          0.05000001	          0.05880528	          0.05000001	          0.05000001	          0.05000006	          0.37079698	          0.09293529	          0.21688140	          0.13946283	          0.05672852	          0.09849646	          0.19398418	          0.11279114	          0.13914617	          0.12746611	          0.05000053	          0.05000200	          0.18433123	          0.05880522	          0.05880541	          0.05880778	          0.08580040	          0.10105666	          0.24862586	          0.06784027	          0.05000009	          0.05000000	          0.05000002	          0.05000002	          0.05000001	          0.05648892	          0.05000050	          0.05000000	          0.05000006	          0.05000014	          0.05000007	          0.36566548	          0.06554898	          0.09488865	          0.18383670	          0.56845582	          0.32809162	          0.27478487	          0.05857889	          0.09243948	          0.10315550	
          1.06721730	        -11.42828766	         -2.29355501	          3.86314333	          1.42187777	          0.90022158	         -0.00282798	         -6.03969525	          0.46886290	         11.91370978	         36.78170612	          3.11923306	         -1.44319929	        -15.57627336	        -11.57081102	          5.95954883	          9.76954674	         10.80849529	          3.63926762	         -1.94768976	          0.32055738	         17.51809343	          0.12630905	          5.35460411	          1.16609125	         -1.86240991	         -0.46251457	        -13.91605717	         19.38596831	         -2.97658866	        -13.44970710	         11.48837911	         55.20010819	         16.15262581	         86.51662706	         86.51662706	          0.16404095	          0.06916156	          0.05000000	          0.24559140	          0.13543561	          0.08134064	          0.05000015	          0.05000003	          0.05000001	          0.05000008	          0.08134174	          0.10129312	          0.05317293	          0.05000011	          0.05000029	          0.05000010	          0.66048648	          0.05880574	          0.05000008	          0.05000009	          0.05000003	          0.05000002	          0.17986673	          0.73424502	          0.05000000	          0.05000005	          0.05000007	          0.28093707	          0.15911657	          0.16070147	          0.13707829	          0.35222504	          0.42934861	          0.24538465	          0.41198281	          0.34730369	          0.42056909	          0.05000000	          0.05000039	          0.11545156	          0.05000000	          0.05000000	          0.06916155	          0.63459136	          0.05000000	          0.05000008	          0.08134145	          0.05880541	          0.05880541	          0.05000001	          0.05880542	          0.05880542	          0.05880539	          0.33640859	          0.07901933	          0.18440599	          0.11857991	          0.05000010	          0.17833766	          0.26188792	          0.09590202	          0.16646024	          0.13922954	          0.05000002	          0.05551946	          0.15672982	          0.05000003	          0.05000001	          0.05000201	          0.09566646	          0.09566645	          0.53959105	          0.28849232	          0.11882913	          0.05000000	          0.05000000	          0.05000000	          0.05000000	          0.05000005	          0.05000002	          0.05000000	          0.05880713	          0.05880543	          0.05880558	          0.37640869	          0.09675902	          0.12569763	          0.15630939	          0.62633234	          0.27896379	          0.23363907	          0.05000000	          0.07859776	          0.08770918	
          1.07778381	        -11.42538099	         -2.34636178	          4.08086635	          1.43869617	          0.89874992	         -0.00266896	         -6.44666661	          0.21341298	         12.05460166	         36.69287215	          3.35710202	         -1.49085291	        -16.41253359	        -12.84826593	          4.86338265	          8.78881085	         11.50410352	          3.69044196	         -2.94073273	          0.62717544	         20.01196952	         -0.46198383	          5.53036356	          1.30414727	         -1.88015875	         -1.05639953	        -13.89025917	         19.34555751	         -3.66259055	        -13.46309759	         10.82345602	         57.15206297	         15.48494101	         86.51662706	         86.51662706	          0.13947774	          0.05880547	          0.05880545	          0.20881698	          0.11515573	          0.06916086	          0.05000025	          0.05000014	          0.05006561	          0.05000003	          0.06916182	          0.22706855	          0.05000009	          0.16884621	          0.05880553	          0.10008686	          0.59223146	          0.05000068	          0.05880691	          0.05880551	          0.05880546	          0.05880549	          0.15293380	          0.74270038	          0.06916148	          0.05880675	          0.05880542	          0.23887004	          0.16499322	          0.19712692	          0.17310984	          0.29948353	          0.36505884	          0.20864118	          0.35029323	          0.29529905	          0.35759381	          0.06886244	          0.05000000	          0.09816405	          0.05000000	          0.05000000	          0.05880542	          0.53956874	          0.06785672	          0.06674455	          0.06916154	          0.05000000	          0.05000000	          0.06087572	          0.05000000	          0.05000000	          0.05000000	          0.28603538	          0.06718711	          0.15679336	          0.10082396	          0.08134155	          0.15163371	          0.27911354	          0.32014887	          0.18405915	          0.16110819	          0.05880554	          0.06916459	          0.13326138	          0.05000013	          0.09593912	          0.14616144	          0.08134154	          0.08134154	          0.72987568	          0.24529399	          0.10103591	          0.06916169	          0.05880686	          0.05946374	          0.05880551	          0.06916154	          0.06916212	          0.06916154	          0.05000146	          0.05000003	          0.05000015	          0.47328015	          0.18559017	          0.10687590	          0.37456663	          0.53254655	          0.23719225	          0.19865436	          0.05000000	          0.06682866	          0.07457576	
          1.08835032	        -11.41907081	         -2.42785835	          4.27108786	          1.45574653	          0.89736588	         -0.00253278	         -6.76487495	         -0.05576979	         12.16774200	         36.52122493	          3.51597094	         -1.45502100	        -17.36681131	        -14.32751553	          3.60597126	          7.72851326	         12.18346927	          3.74781081	         -4.01258406	          0.89036819	         22.54237492	         -0.94992025	          5.71864888	          1.48208310	         -1.88831199	         -1.70508919	        -13.84741700	         19.27109577	         -4.35573908	        -13.50029450	         10.39971083	         59.05442571	         14.83678981	         86.51662706	         86.51662706	          0.16167994	          0.05000006	          0.05000002	          0.17754913	          0.09791253	          0.05880485	          0.05000012	          0.05000004	          0.05000001	          0.05000287	          0.05880571	          0.20783463	          0.16269579	          0.14356349	          0.05000025	          0.08510010	          0.66175114	          0.05880930	          0.05000132	          0.05000016	          0.05000006	          0.05000007	          0.13003376	          0.80207321	          0.05880536	          0.05000115	          0.05000000	          0.20310205	          0.14028743	          0.16760948	          0.14718868	          0.25463938	          0.31039556	          0.17739960	          0.29784092	          0.25108148	          0.30404834	          0.22078068	          0.11351999	          0.08346515	          0.25770883	          0.05000001	          0.05000001	          0.45877464	          0.09740485	          0.05675034	          0.05880541	          0.25630762	          0.35360831	          0.44901098	          0.36842340	          0.27481475	          0.30521316	          0.24320529	          0.16223860	          0.16029890	          0.11991329	          0.06916163	          0.12892835	          0.23731957	          0.27221034	          0.15649849	          0.21806079	          0.05000012	          0.05880823	          0.21627627	          0.24504606	          0.21928569	          0.23504211	          0.06916160	          0.06916160	          0.62058536	          0.21051677	          0.30920870	          0.05880554	          0.05000123	          0.05055974	          0.05000008	          0.05880541	          0.05880591	          0.05880541	          0.05880542	          0.05880546	          0.05880543	          0.57755053	          0.15780022	          0.09087250	          0.39766934	          0.72574268	          0.55245681	          0.52984644	          0.06822520	          0.09566639	          0.06340891	
